# xmcd
#
# Track frame offsets: 
#        150
#        11971
#        34126
#        54358
#        70790
#        89325
#        106707
#        127403
#        152941
#        175040
#        191668
#        208921
#        229825
#        254949
#        279625
#        300491
#
# Disc length: 4136 seconds
#
# Revision: 1
# Processed by: cddbd v1.5.2PL0 Copyright (c) Steve Scherf et al.
# Submitted via: ExactAudioCopy v0.99pb4
#
DISCID=ec102610
DTITLE=Groove Soul - Groove Soul
DYEAR=2004
DGENRE=Gospel
TTITLE0=Intro
TTITLE1=Jesus Cristo É O Mesmo
TTITLE2=Com Cristo
TTITLE3=Eu Quero Ser Feliz
TTITLE4=Grande Amor
TTITLE5=Te Louvo
TTITLE6=Eis Que Tudo Novo Se Fez
TTITLE7=Minha Gratidão
TTITLE8=Salmo 18
TTITLE9=Em Deus Encontrarei
TTITLE10=Meu Prazer
TTITLE11=Abra O Seu Coração
TTITLE12=Pare Agora
TTITLE13=Te Reencontrar
TTITLE14=Eu Celebro
TTITLE15=Mexendo Com Fogo
EXTD=
EXTT0=
EXTT1=
EXTT2=
EXTT3=
EXTT4=
EXTT5=
EXTT6=
EXTT7=
EXTT8=
EXTT9=
EXTT10=
EXTT11=
EXTT12=
EXTT13=
EXTT14=
EXTT15=
PLAYORDER=
